<svg width="20" height="20" viewBox="0 0 20 20" fill="none" xmlns="http://www.w3.org/2000/svg">
<path fill-rule="evenodd" clip-rule="evenodd" d="M9.99998 0.833313C10.221 0.833313 10.433 0.92111 10.5892 1.07739C10.7455 1.23367 10.8333 1.44563 10.8333 1.66665V3.33331C10.8333 3.55433 10.7455 3.76629 10.5892 3.92257C10.433 4.07885 10.221 4.16665 9.99998 4.16665C9.77896 4.16665 9.567 4.07885 9.41072 3.92257C9.25444 3.76629 9.16665 3.55433 9.16665 3.33331V1.66665C9.16665 1.44563 9.25444 1.23367 9.41072 1.07739C9.567 0.92111 9.77896 0.833313 9.99998 0.833313ZM4.99998 9.99998C4.99998 8.6739 5.52676 7.40213 6.46445 6.46445C7.40213 5.52676 8.6739 4.99998 9.99998 4.99998C11.3261 4.99998 12.5978 5.52676 13.5355 6.46445C14.4732 7.40213 15 8.6739 15 9.99998C15 11.3261 14.4732 12.5978 13.5355 13.5355C12.5978 14.4732 11.3261 15 9.99998 15C8.6739 15 7.40213 14.4732 6.46445 13.5355C5.52676 12.5978 4.99998 11.3261 4.99998 9.99998ZM9.99998 6.66665C9.11592 6.66665 8.26808 7.01784 7.64296 7.64296C7.01783 8.26808 6.66665 9.11592 6.66665 9.99998C6.66665 10.884 7.01783 11.7319 7.64296 12.357C8.26808 12.9821 9.11592 13.3333 9.99998 13.3333C10.884 13.3333 11.7319 12.9821 12.357 12.357C12.9821 11.7319 13.3333 10.884 13.3333 9.99998C13.3333 9.11592 12.9821 8.26808 12.357 7.64296C11.7319 7.01784 10.884 6.66665 9.99998 6.66665ZM10.8333 16.6666C10.8333 16.4456 10.7455 16.2337 10.5892 16.0774C10.433 15.9211 10.221 15.8333 9.99998 15.8333C9.77896 15.8333 9.567 15.9211 9.41072 16.0774C9.25444 16.2337 9.16665 16.4456 9.16665 16.6666V18.3333C9.16665 18.5543 9.25444 18.7663 9.41072 18.9226C9.567 19.0788 9.77896 19.1666 9.99998 19.1666C10.221 19.1666 10.433 19.0788 10.5892 18.9226C10.7455 18.7663 10.8333 18.5543 10.8333 18.3333V16.6666ZM19.1666 9.99998C19.1666 10.221 19.0788 10.433 18.9226 10.5892C18.7663 10.7455 18.5543 10.8333 18.3333 10.8333H16.6666C16.4456 10.8333 16.2337 10.7455 16.0774 10.5892C15.9211 10.433 15.8333 10.221 15.8333 9.99998C15.8333 9.77896 15.9211 9.567 16.0774 9.41072C16.2337 9.25444 16.4456 9.16665 16.6666 9.16665H18.3333C18.5543 9.16665 18.7663 9.25444 18.9226 9.41072C19.0788 9.567 19.1666 9.77896 19.1666 9.99998ZM3.33331 10.8333C3.55433 10.8333 3.76629 10.7455 3.92257 10.5892C4.07885 10.433 4.16665 10.221 4.16665 9.99998C4.16665 9.77896 4.07885 9.567 3.92257 9.41072C3.76629 9.25444 3.55433 9.16665 3.33331 9.16665H1.66665C1.44563 9.16665 1.23367 9.25444 1.07739 9.41072C0.92111 9.567 0.833313 9.77896 0.833313 9.99998C0.833313 10.221 0.92111 10.433 1.07739 10.5892C1.23367 10.7455 1.44563 10.8333 1.66665 10.8333H3.33331ZM16.4816 3.51831C16.6379 3.67459 16.7256 3.88651 16.7256 4.10748C16.7256 4.32845 16.6379 4.54037 16.4816 4.69665L15.3033 5.87498C15.2264 5.95457 15.1345 6.01806 15.0328 6.06173C14.9311 6.1054 14.8218 6.12839 14.7111 6.12935C14.6005 6.13032 14.4908 6.10923 14.3883 6.06733C14.2859 6.02543 14.1929 5.96355 14.1146 5.88531C14.0364 5.80706 13.9745 5.71402 13.9326 5.61161C13.8907 5.50919 13.8696 5.39946 13.8706 5.28881C13.8716 5.17816 13.8946 5.06881 13.9382 4.96714C13.9819 4.86547 14.0454 4.77352 14.125 4.69665L15.3033 3.51831C15.4596 3.36209 15.6715 3.27432 15.8925 3.27432C16.1134 3.27432 16.3254 3.36209 16.4816 3.51831ZM5.87498 15.3033C5.95457 15.2264 6.01806 15.1345 6.06173 15.0328C6.1054 14.9311 6.12839 14.8218 6.12935 14.7111C6.13032 14.6005 6.10923 14.4908 6.06733 14.3884C6.02543 14.2859 5.96355 14.1929 5.88531 14.1146C5.80706 14.0364 5.71402 13.9745 5.61161 13.9326C5.50919 13.8907 5.39946 13.8696 5.28881 13.8706C5.17816 13.8716 5.06881 13.8946 4.96714 13.9382C4.86547 13.9819 4.77352 14.0454 4.69665 14.125L3.51831 15.3033C3.43872 15.3802 3.37524 15.4721 3.33156 15.5738C3.28789 15.6755 3.2649 15.7848 3.26394 15.8955C3.26298 16.0061 3.28406 16.1159 3.32596 16.2183C3.36786 16.3207 3.42974 16.4137 3.50798 16.492C3.58623 16.5702 3.67927 16.6321 3.78168 16.674C3.8841 16.7159 3.99383 16.737 4.10448 16.736C4.21513 16.7351 4.32448 16.7121 4.42615 16.6684C4.52782 16.6247 4.61977 16.5612 4.69665 16.4816L5.87498 15.3033ZM3.51831 3.51831C3.67459 3.36209 3.88651 3.27432 4.10748 3.27432C4.32845 3.27432 4.54037 3.36209 4.69665 3.51831L5.87498 4.69665C5.95457 4.77352 6.01806 4.86547 6.06173 4.96714C6.1054 5.06881 6.12839 5.17816 6.12935 5.28881C6.13032 5.39946 6.10923 5.50919 6.06733 5.61161C6.02543 5.71402 5.96355 5.80706 5.88531 5.88531C5.80706 5.96355 5.71402 6.02543 5.61161 6.06733C5.50919 6.10923 5.39946 6.13032 5.28881 6.12935C5.17816 6.12839 5.06881 6.1054 4.96714 6.06173C4.86547 6.01806 4.77352 5.95457 4.69665 5.87498L3.51831 4.69665C3.36209 4.54037 3.27432 4.32845 3.27432 4.10748C3.27432 3.88651 3.36209 3.67459 3.51831 3.51831ZM15.3033 14.125C15.1461 13.9732 14.9356 13.8892 14.7171 13.8911C14.4986 13.893 14.2896 13.9806 14.1351 14.1351C13.9806 14.2896 13.893 14.4986 13.8911 14.7171C13.8892 14.9356 13.9732 15.1461 14.125 15.3033L15.3033 16.4816C15.4605 16.6334 15.671 16.7174 15.8895 16.7155C16.108 16.7136 16.317 16.626 16.4715 16.4715C16.626 16.317 16.7136 16.108 16.7155 15.8895C16.7174 15.671 16.6334 15.4605 16.4816 15.3033L15.3033 14.125Z" fill="#4D8194"/>
</svg>
