<svg width="22" height="22" viewBox="0 0 22 22" fill="none" xmlns="http://www.w3.org/2000/svg">
<path d="M8.15722 19.7714L8.13797 17.5618C8.13796 16.7818 8.77388 16.148 9.56177 16.1428H12.4478C13.2395 16.1428 13.8813 16.7781 13.8813 17.5618L13.9005 19.7809C13.9003 20.4432 14.4343 20.9845 15.103 21H17.0271C18.9451 21 20.5 19.4607 20.5 17.5618V8.83784C20.4898 8.09083 20.1355 7.38935 19.538 6.93303L12.9577 1.6853C11.8049 0.771566 10.1662 0.771566 9.01342 1.6853L2.46203 6.94256C1.86226 7.39702 1.50739 8.09967 1.5 8.84736V17.5618C1.5 19.4607 3.05488 21 4.97291 21H6.89696C7.58235 21 8.13797 20.4499 8.13797 19.7714" stroke="#97A2B0" stroke-width="1.5" stroke-linecap="round" stroke-linejoin="round"/>
<path d="M8.0905 12.8898H13.9097" stroke="#97A2B0" stroke-width="1.5" stroke-linecap="round" stroke-linejoin="round"/>
</svg>
